# xmcd CD database file
# Generated: ?t led 2 12:51:45 2003 by KSCD
# 
# Track frame offsets:
#       150
#       17912
#       30904
#       42853
#       54075
#       73845
#       85154
#       102141
#       112698
#       124473
#       142490
#       154569
#       167696
#       179053
#       195880
#       211455
#       223552
#       250296
#       262616
#       287375
#       301577
#       318589
#
# Disc length: 4454 seconds
#
# Revision: 2
# Processed by: cddbd v1.4PL0 Copyright (c) Steve Scherf et al.
# Submitted via: Kscd 1.3.3
#
DISCID=29116416
DTITLE=Mahalia Jackson - The Queen Of Gospel
DYEAR=1900
DGENRE=
TTITLE0=When The Saints Go Marching In
TTITLE1=Oh Lord Is It I ?
TTITLE2=I'm Going To Live The Life I Sing About In My Song
TTITLE3=Jesus Met The Woman At The Well
TTITLE4=When I Wake Up In Glory
TTITLE5=Keep Your Hand On The Plow
TTITLE6=Out Of The Depths
TTITLE7=Jesus
TTITLE8=Didn't It Rain
TTITLE9=A City Called Heaven
TTITLE10=Walk Over God's Heaven
TTITLE11=An Evening Prayer
TTITLE12=Joshua Fit The Battle Of Jericho
TTITLE13=The Lord's Payer
TTITLE14=I'm On My Way
TTITLE15=Nobody Knows The Trobble I've Seen
TTITLE16=In The Upper Room
TTITLE17=He's Got The Whole World In His Hands
TTITLE18=I Will Move On Up A Little Higher
TTITLE19=Go Tell It On The Mountains
TTITLE20=My God Is Real (Yes, God Is Real)
TTITLE21=It Don't Cost Very Much
EXTD=
EXTT0=
EXTT1=
EXTT2=
EXTT3=
EXTT4=
EXTT5=
EXTT6=
EXTT7=
EXTT8=
EXTT9=
EXTT10=
EXTT11=
EXTT12=
EXTT13=
EXTT14=
EXTT15=
EXTT16=
EXTT17=
EXTT18=
EXTT19=
EXTT20=
EXTT21=
PLAYORDER=
